<svg xmlns="http://www.w3.org/2000/svg" height="750" width="750"><defs><clipPath id="a" clipPathUnits="userSpaceOnUse"><path d="M0 600h600V0H0v600z"/></clipPath><clipPath id="b" clipPathUnits="userSpaceOnUse"><path d="M0 600h600V0H0v600z"/></clipPath></defs><g clip-path="url(#a)" transform="matrix(1.25 0 0 -1.25 0 750)"><path d="M126.305 354.614l12.72-27.12 11.318-23.816-22.883.236-.645.004c-3.053 14.872-6.072 29.752-9.24 44.599l-9.845 46.289 5.975-13.016 12.6-27.176zm124.389-73.35l-18.092 15.54-18.177 15.44-36.355 30.88-36.38 30.852-30.962 25.939-5.237 11.092-2.061 4.366-2.175-4.27-1.161-2.28-.391.329.168-.766-12.212-23.976-13.45-26.77a2469.562 2469.562 0 0 1-13.253-26.871c-4.384-8.975-8.791-17.937-13.06-26.972 4.974 8.667 9.808 17.406 14.667 26.133 4.882 8.716 9.7 17.464 14.473 26.235l14.277 26.338 10.098 18.876 11.825-53.8c3.192-14.565 6.526-29.1 9.832-43.64l-22.125.12c-8.84.059-17.68-.015-26.521-.046-8.841-.027-17.682-.066-26.526-.216 8.828-.553 17.658-.992 26.489-1.421 8.83-.432 17.659-.908 26.492-1.251l23.039-.92c.548-2.413 1.1-4.824 1.645-7.237 4.165-18.191 8.18-36.415 12.489-54.575 4.265-18.17 8.449-36.357 12.85-54.497-3.485 18.339-7.19 36.63-10.811 54.938-3.58 18.318-7.452 36.572-11.175 54.86-.44 2.12-.87 4.244-1.307 6.365l26.265-.922 3.612-.127-1.52 3.33-12.43 27.254-12.566 27.19-12.687 27.136-2.518 5.33 22.612-19.205 36.542-30.658 36.565-30.63 18.282-15.316 16.698-13.83-47.187-46.884c-16.12-16.281-32.363-32.437-48.374-48.831 16.826 15.556 33.42 31.35 50.138 47.018l49.759 47.408 1.574 1.5-1.678 1.442z" fill="#ffe900"/></g><text style="-inkscape-font-specification:Lato-Semibold" transform="matrix(1.25 0 0 1.0963 54.231 406.594)" font-weight="600" font-size="17.005" font-family="Lato Semibold" fill="#171717"><tspan y="0" x="0 11.818197 24.163536 42.647537 61.131538 72.456604 84.801941 98.150551 104.93539 119.69538 126.48022 139.40372 152.75232 166.68759 181.80469 193.62288 200.40771 207.49863 214.28346 229.76785 237.21587 249.03407 261.37939 276.98282 293.20523 299.30988 311.99701 318.78183 332.13043 344.4758 362.95978 379.18216 394.65637 407.00171 418.32675 432.21103 446.05276 453.50079 469.72318 485.31638 497.66171">SEMMLER &amp; PRAUS · DISEÑO Y REMODELACIONES</tspan></text><g clip-path="url(#b)" transform="matrix(1.25 0 0 -1.25 0 750)"><path d="M263.956 334.536c-1.71 1.2-3.652 2.196-5.827 2.99a99.952 99.952 0 0 1-6.698 2.181 339.34 339.34 0 0 0-6.7 2.001c-2.176.675-4.117 1.507-5.828 2.496-1.714.99-3.09 2.188-4.134 3.597-1.044 1.41-1.567 3.193-1.567 5.352 0 1.648.353 3.222 1.055 4.721.702 1.5 1.731 2.817 3.086 3.957 1.354 1.14 3.035 2.04 5.041 2.7 2.007.657 4.331.988 6.97.988 2.641 0 4.86-.286 6.661-.855 1.801-.57 3.3-1.19 4.502-1.865 1.198-.676 2.15-1.29 2.853-1.844.705-.556 1.277-.833 1.725-.833.58 0 1.026.255 1.332.765l1.23 2.068c-2.462 2.16-5.19 3.763-8.184 4.812-2.996 1.05-6.377 1.575-10.14 1.575-3.356 0-6.342-.459-8.96-1.372-2.619-.915-4.818-2.13-6.6-3.643-1.779-1.514-3.13-3.26-4.055-5.239a14.38 14.38 0 0 1-1.387-6.16c0-2.728.523-5 1.567-6.813a14.145 14.145 0 0 1 4.134-4.54c1.711-1.216 3.654-2.213 5.827-2.992a91.891 91.891 0 0 1 6.701-2.114 263.39 263.39 0 0 0 6.7-1.933c2.173-.66 4.116-1.477 5.827-2.45 1.712-.976 3.088-2.189 4.134-3.643 1.044-1.454 1.565-3.306 1.565-5.554 0-2.068-.41-4.01-1.232-5.823a13.278 13.278 0 0 0-3.567-4.699c-1.558-1.32-3.467-2.36-5.724-3.125-2.262-.765-4.828-1.147-7.703-1.147-2.088 0-3.955.18-5.598.54-1.644.36-3.096.801-4.363 1.325-1.268.525-2.379 1.095-3.338 1.71a36.194 36.194 0 0 0-2.464 1.708c-.684.525-1.267.968-1.746 1.326-.479.36-.873.541-1.179.541-.55 0-1.026-.225-1.438-.675l-1.436-1.978c2.598-2.579 5.625-4.61 9.077-6.094 3.451-1.483 7.57-2.226 12.356-2.226 3.691 0 6.974.503 9.844 1.507 2.871 1.004 5.3 2.375 7.281 4.114 1.983 1.74 3.495 3.785 4.538 6.14 1.042 2.351 1.563 4.862 1.563 7.531 0 2.608-.52 4.79-1.565 6.543a14.316 14.316 0 0 1-4.136 4.43m7.474 30.893h25.635v-59.718h5.23v59.717h25.483v3.913H271.43v-3.913zm111.254-35.436c0-2.967-.503-5.733-1.512-8.296-1.01-2.563-2.47-4.788-4.383-6.678-1.915-1.889-4.248-3.366-7.001-4.429-2.75-1.065-5.87-1.597-9.357-1.597-3.485 0-6.603.54-9.356 1.62-2.751 1.08-5.075 2.562-6.972 4.452-1.898 1.888-3.351 4.114-4.36 6.677-1.008 2.563-1.512 5.33-1.512 8.297v39.302h-5.28v-39.348c0-3.506.632-6.782 1.897-9.825a23.104 23.104 0 0 1 5.46-7.959c2.376-2.264 5.263-4.04 8.666-5.328 3.4-1.289 7.219-1.935 11.457-1.935 4.239 0 8.06.646 11.46 1.935 3.4 1.287 6.29 3.064 8.666 5.328a23.145 23.145 0 0 1 5.46 7.96c1.265 3.042 1.897 6.318 1.897 9.824v39.348h-5.23v-39.348zm70.714-4.361c-1.403-3.478-3.377-6.416-5.924-8.814-2.545-2.398-5.613-4.227-9.202-5.486-3.588-1.26-7.57-1.888-11.947-1.888h-21.174v56.165h21.174c4.376 0 8.36-.63 11.947-1.89 3.59-1.258 6.657-3.087 9.202-5.484 2.547-2.4 4.521-5.338 5.924-8.815 1.4-3.478 2.101-7.434 2.101-11.871 0-4.468-.7-8.44-2.1-11.917m-2.054 35.165c-3.042 2.758-6.683 4.87-10.92 6.34-4.238 1.469-8.938 2.204-14.1 2.204h-26.457v-63.63h26.457c5.162 0 9.862.734 14.1 2.204 4.237 1.468 7.878 3.582 10.92 6.34 3.041 2.757 5.401 6.1 7.077 10.028 1.674 3.927 2.512 8.349 2.512 13.266 0 4.886-.838 9.292-2.512 13.22-1.676 3.927-4.036 7.269-7.077 10.028m17.148-55.086h5.282v63.63h-5.282v-63.63zm76.971 19.133c-1.403-3.523-3.377-6.513-5.922-8.97-2.547-2.459-5.615-4.334-9.204-5.62-3.59-1.29-7.571-1.936-11.945-1.936-4.307 0-8.248.645-11.82 1.935-3.571 1.287-6.647 3.162-9.227 5.62-2.582 2.458-4.583 5.448-6.001 8.971-1.417 3.522-2.127 7.517-2.127 11.984 0 4.437.71 8.424 2.127 11.961 1.418 3.537 3.419 6.535 6 8.994 2.58 2.457 5.657 4.34 9.228 5.644 3.572 1.304 7.513 1.956 11.82 1.956 4.374 0 8.356-.652 11.945-1.956 3.589-1.305 6.657-3.187 9.204-5.644 2.545-2.459 4.519-5.457 5.922-8.994 1.4-3.537 2.103-7.524 2.103-11.96 0-4.468-.703-8.463-2.103-11.985m5.024 25.317c-1.674 4.003-4.033 7.427-7.075 10.275-3.042 2.848-6.682 5.043-10.922 6.588-4.238 1.544-8.94 2.317-14.098 2.317-5.095 0-9.76-.78-14-2.34-4.238-1.559-7.876-3.754-10.918-6.588-3.044-2.832-5.41-6.249-7.102-10.252-1.691-4.002-2.538-8.446-2.538-13.333 0-4.917.847-9.376 2.538-13.378 1.693-4.002 4.058-7.419 7.102-10.252 3.042-2.834 6.68-5.022 10.919-6.566 4.239-1.544 8.904-2.315 13.999-2.315 5.159 0 9.86.771 14.098 2.315 4.24 1.544 7.88 3.732 10.922 6.566 3.042 2.833 5.4 6.25 7.075 10.252 1.674 4.002 2.512 8.461 2.512 13.378 0 4.887-.838 9.331-2.512 13.333M90.584 336.02c-1.557 1.349-3.334 2.458-5.334 3.329-2 .868-4.041 1.626-6.126 2.27a148.751 148.751 0 0 1-6.127 1.753c-2 .524-3.777 1.102-5.333 1.73-1.556.632-2.812 1.38-3.77 2.25-.955.87-1.434 1.964-1.434 3.284 0 2.068.794 3.709 2.385 4.924 1.589 1.214 4.007 1.82 7.254 1.82 1.88 0 3.554-.218 5.025-.652 1.47-.435 2.777-.921 3.923-1.461a465.784 465.784 0 0 0 3.075-1.462c.906-.434 1.753-.652 2.538-.652.889 0 1.615.18 2.179.54.565.36 1.103.899 1.616 1.619l4.306 7.06c-1.333 1.079-2.844 2.045-4.536 2.9a36.519 36.519 0 0 1-5.462 2.204 39.401 39.401 0 0 1-6.178 1.394c-2.17.315-4.4.472-6.691.472-4.102 0-7.743-.548-10.92-1.641-3.18-1.095-5.862-2.557-8.051-4.385-2.188-1.83-3.844-3.912-4.974-6.25-1.126-2.338-1.691-4.738-1.691-7.195 0-3.058.479-5.63 1.435-7.713.957-2.083 2.213-3.822 3.768-5.216a19.416 19.416 0 0 1 5.308-3.372 48.39 48.39 0 0 1 6.102-2.158 170.638 170.638 0 0 1 6.1-1.597c1.982-.48 3.752-1.035 5.308-1.664 1.554-.63 2.809-1.424 3.768-2.383.956-.96 1.435-2.204 1.435-3.732 0-2.64-.87-4.565-2.614-5.78-1.744-1.213-4.19-1.82-7.333-1.82-2.324 0-4.34.285-6.05.855-1.71.568-3.222 1.198-4.537 1.888a241.357 241.357 0 0 0-3.54 1.888c-1.04.57-2.074.854-3.1.854a5.022 5.022 0 0 1-2.205-.494c-.684-.33-1.213-.765-1.59-1.304l-5.126-7.106c1.467-1.289 3.194-2.458 5.176-3.507a43.194 43.194 0 0 1 6.36-2.72 46.71 46.71 0 0 1 6.998-1.777 41.3 41.3 0 0 1 7.1-.63c4.24 0 8.025.562 11.358 1.687 3.333 1.124 6.136 2.668 8.41 4.632 2.271 1.963 4.006 4.264 5.203 6.901 1.195 2.64 1.795 5.471 1.795 8.5 0 2.728-.48 5.06-1.436 6.993-.958 1.933-2.214 3.574-3.768 4.923m49.913 4.004c-1.985-1.89-5.23-2.833-9.742-2.833h-9.025v20.775h9.025c2.185 0 4.076-.241 5.665-.72 1.59-.48 2.904-1.162 3.948-2.046a8.305 8.305 0 0 0 2.332-3.17c.512-1.23.771-2.593.771-4.092 0-3.39-.994-6.025-2.974-7.914m13.15 23.159c-2.445 1.918-5.555 3.424-9.332 4.519-3.776 1.094-8.298 1.64-13.56 1.64H104.4v-65.517h17.33v21.899h9.024c5.16 0 9.63.547 13.407 1.64 3.777 1.095 6.896 2.616 9.357 4.566 2.462 1.948 4.29 4.287 5.486 7.014 1.197 2.728 1.795 5.726 1.795 8.994 0 3.028-.583 5.846-1.745 8.455-1.162 2.607-2.965 4.87-5.409 6.79m23.78-17.257v-40.213h43.48v3.822h-38.197v26.532h31.786v3.732h-31.786v25.722h38.196v3.822h-43.479v-23.417z" fill="#1c1c1b"/></g></svg>