<?xml version="1.0" encoding="UTF-8" standalone="no"?>
<svg
   xmlns:dc="http://purl.org/dc/elements/1.1/"
   xmlns:cc="http://creativecommons.org/ns#"
   xmlns:rdf="http://www.w3.org/1999/02/22-rdf-syntax-ns#"
   xmlns:svg="http://www.w3.org/2000/svg"
   xmlns="http://www.w3.org/2000/svg"
   viewBox="0 0 750 750"
   height="750"
   width="750"
   xml:space="preserve"
   version="1.1"
   id="svg2"><metadata
     id="metadata8"><rdf:RDF><cc:Work
         rdf:about=""><dc:format>image/svg+xml</dc:format><dc:type
           rdf:resource="http://purl.org/dc/dcmitype/StillImage" /><dc:title></dc:title></cc:Work></rdf:RDF></metadata><defs
     id="defs6"><clipPath
       id="clipPath16"
       clipPathUnits="userSpaceOnUse"><path
         id="path18"
         d="M 0,600 600,600 600,0 0,0 0,600 Z" /></clipPath><clipPath
       id="clipPath32"
       clipPathUnits="userSpaceOnUse"><path
         id="path34"
         d="M 0,600 600,600 600,0 0,0 0,600 Z" /></clipPath></defs><g
     transform="matrix(1.25,0,0,-1.25,0,750)"
     id="g10"><g
       id="g12"><g
         clip-path="url(#clipPath16)"
         id="g14"><g
           transform="translate(126.3047,354.6138)"
           id="g20"><path
             id="path22"
             style="fill:#ffe900;fill-opacity:1;fill-rule:nonzero;stroke:none"
             d="M 0,0 12.72,-27.12 24.038,-50.936 1.155,-50.7 0.51,-50.696 c -3.053,14.872 -6.072,29.752 -9.24,44.599 L -18.575,40.192 -12.6,27.176 0,0 Z m 124.389,-73.35 -18.092,15.541 -18.177,15.44 -36.355,30.879 -36.379,30.852 -30.963,25.939 -5.237,11.092 -2.061,4.366 -2.175,-4.27 -1.161,-2.279 -0.391,0.328 0.168,-0.766 -12.212,-23.976 -13.45,-26.769 c -4.468,-8.93 -8.892,-17.885 -13.253,-26.872 -4.384,-8.975 -8.791,-17.937 -13.06,-26.972 4.974,8.667 9.808,17.406 14.667,26.133 4.882,8.716 9.7,17.464 14.473,26.235 l 14.277,26.338 10.098,18.876 11.825,-53.8 c 3.192,-14.565 6.526,-29.1 9.832,-43.64 l -22.125,0.121 c -8.839,0.058 -17.68,-0.016 -26.521,-0.047 -8.841,-0.027 -17.682,-0.066 -26.526,-0.216 8.828,-0.553 17.658,-0.992 26.489,-1.421 8.83,-0.432 17.659,-0.908 26.492,-1.251 l 23.039,-0.92 c 0.548,-2.413 1.101,-4.824 1.645,-7.237 4.165,-18.191 8.181,-36.415 12.489,-54.575 4.265,-18.17 8.449,-36.357 12.851,-54.497 -3.486,18.339 -7.19,36.63 -10.812,54.938 -3.58,18.318 -7.452,36.572 -11.175,54.86 -0.44,2.121 -0.87,4.244 -1.307,6.365 l 26.265,-0.922 3.612,-0.127 -1.519,3.33 L 17.23,-25.02 4.663,2.171 -8.024,29.306 l -2.518,5.331 22.612,-19.206 36.542,-30.658 36.565,-30.63 18.282,-15.316 16.698,-13.829 -47.187,-46.885 c -16.12,-16.281 -32.363,-32.437 -48.374,-48.831 16.826,15.556 33.421,31.35 50.138,47.018 l 49.759,47.408 1.574,1.5 -1.678,1.442 z" /></g></g></g><text
       id="text24"
       style="font-variant:normal;font-weight:600;font-stretch:normal;font-size:17.00460052px;font-family:'Lato Semibold';-inkscape-font-specification:Lato-Semibold;writing-mode:lr-tb;fill:#171717;fill-opacity:1;fill-rule:nonzero;stroke:none"
       transform="matrix(1,0,0,-0.87704503,43.3848,274.7246)"><tspan
         id="tspan26"
         y="0"
         x="0 11.818197 24.163536 42.647537 61.131538 72.456604 84.801941 98.150551 104.93539 119.69538 126.48022 139.40372 152.75232 166.68759 181.80469 193.62288 200.40771 207.49863 214.28346 229.76785 237.21587 249.03407 261.37939 276.98282 293.20523 299.30988 311.99701 318.78183 332.13043 344.4758 362.95978 379.18216 394.65637 407.00171 418.32675 432.21103 446.05276 453.50079 469.72318 485.31638 497.66171">SEMMLER &amp; PRAUS · DISEÑO Y REMODELACIONES</tspan></text>
<g
       id="g28"><g
         clip-path="url(#clipPath32)"
         id="g30"><g
           transform="translate(263.9561,334.5361)"
           id="g36"><path
             id="path38"
             style="fill:#1c1c1b;fill-opacity:1;fill-rule:nonzero;stroke:none"
             d="m 0,0 c -1.711,1.199 -3.652,2.196 -5.827,2.99 -2.173,0.795 -4.405,1.521 -6.698,2.181 -2.294,0.66 -4.528,1.327 -6.701,2.001 -2.175,0.675 -4.116,1.507 -5.827,2.496 -1.714,0.989 -3.09,2.188 -4.134,3.597 -1.044,1.409 -1.567,3.193 -1.567,5.352 0,1.648 0.353,3.222 1.055,4.721 0.702,1.499 1.731,2.817 3.086,3.957 1.354,1.14 3.035,2.039 5.041,2.699 2.007,0.658 4.331,0.989 6.97,0.989 2.641,0 4.86,-0.286 6.661,-0.855 1.801,-0.57 3.3,-1.191 4.502,-1.865 1.198,-0.676 2.15,-1.29 2.853,-1.844 0.705,-0.556 1.277,-0.833 1.725,-0.833 0.579,0 1.026,0.255 1.332,0.765 l 1.23,2.068 c -2.462,2.159 -5.191,3.763 -8.184,4.812 -2.996,1.049 -6.377,1.575 -10.141,1.575 -3.355,0 -6.341,-0.459 -8.959,-1.372 -2.619,-0.915 -4.818,-2.13 -6.6,-3.643 -1.779,-1.514 -3.131,-3.26 -4.055,-5.239 -0.925,-1.978 -1.387,-4.031 -1.387,-6.161 0,-2.727 0.523,-4.999 1.567,-6.812 1.044,-1.814 2.42,-3.327 4.134,-4.541 1.711,-1.215 3.654,-2.212 5.827,-2.991 2.173,-0.78 4.408,-1.484 6.701,-2.114 2.293,-0.629 4.525,-1.274 6.7,-1.933 2.173,-0.66 4.116,-1.477 5.827,-2.451 1.712,-0.975 3.088,-2.188 4.134,-3.642 1.044,-1.454 1.565,-3.306 1.565,-5.554 0,-2.068 -0.41,-4.01 -1.232,-5.823 -0.821,-1.814 -2.011,-3.38 -3.567,-4.699 -1.558,-1.32 -3.467,-2.361 -5.724,-3.125 -2.262,-0.765 -4.828,-1.147 -7.703,-1.147 -2.088,0 -3.955,0.179 -5.598,0.539 -1.644,0.36 -3.096,0.802 -4.363,1.326 -1.268,0.525 -2.379,1.095 -3.338,1.709 -0.958,0.614 -1.779,1.184 -2.464,1.709 -0.684,0.525 -1.267,0.968 -1.746,1.326 -0.479,0.36 -0.873,0.541 -1.179,0.541 -0.55,0 -1.026,-0.225 -1.438,-0.675 l -1.436,-1.978 c 2.598,-2.579 5.625,-4.61 9.077,-6.094 3.451,-1.483 7.569,-2.226 12.356,-2.226 3.691,0 6.974,0.503 9.844,1.507 2.871,1.004 5.299,2.375 7.281,4.114 1.983,1.739 3.495,3.785 4.538,6.139 1.042,2.352 1.563,4.863 1.563,7.532 0,2.608 -0.521,4.789 -1.565,6.543 C 3.09,-2.675 1.711,-1.199 0,0" /></g><g
           transform="translate(271.4297,365.4292)"
           id="g40"><path
             id="path42"
             style="fill:#1c1c1b;fill-opacity:1;fill-rule:nonzero;stroke:none"
             d="m 0,0 25.635,0 0,-59.717 5.23,0 0,59.717 25.483,0 0,3.913 L 0,3.913 0,0 Z" /></g><g
           transform="translate(382.6836,329.9941)"
           id="g44"><path
             id="path46"
             style="fill:#1c1c1b;fill-opacity:1;fill-rule:nonzero;stroke:none"
             d="m 0,0 c 0,-2.967 -0.503,-5.733 -1.512,-8.296 -1.009,-2.563 -2.47,-4.788 -4.383,-6.678 -1.915,-1.889 -4.248,-3.366 -7.001,-4.429 -2.75,-1.065 -5.869,-1.597 -9.357,-1.597 -3.485,0 -6.603,0.54 -9.356,1.62 -2.751,1.079 -5.075,2.562 -6.972,4.452 -1.898,1.888 -3.351,4.114 -4.359,6.677 -1.009,2.563 -1.513,5.329 -1.513,8.297 l 0,39.302 -5.279,0 0,-39.348 c 0,-3.506 0.631,-6.782 1.896,-9.825 1.263,-3.043 3.084,-5.696 5.46,-7.959 2.376,-2.264 5.263,-4.041 8.666,-5.328 3.4,-1.289 7.219,-1.935 11.457,-1.935 4.239,0 8.06,0.646 11.46,1.935 3.401,1.287 6.29,3.064 8.666,5.328 2.375,2.263 4.195,4.916 5.46,7.959 C 4.598,-6.782 5.23,-3.506 5.23,0 l 0,39.348 -5.23,0 L 0,0 Z" /></g><g
           transform="translate(453.3984,325.6328)"
           id="g48"><path
             id="path50"
             style="fill:#1c1c1b;fill-opacity:1;fill-rule:nonzero;stroke:none"
             d="m 0,0 c -1.403,-3.478 -3.377,-6.416 -5.924,-8.814 -2.545,-2.398 -5.613,-4.227 -9.202,-5.486 -3.588,-1.259 -7.571,-1.888 -11.947,-1.888 l -21.174,0 0,56.165 21.174,0 c 4.376,0 8.359,-0.63 11.947,-1.889 C -11.537,36.829 -8.469,35 -5.924,32.603 -3.377,30.203 -1.403,27.265 0,23.788 1.4,20.31 2.101,16.354 2.101,11.917 2.101,7.449 1.4,3.478 0,0 m -2.053,35.165 c -3.042,2.758 -6.683,4.871 -10.92,6.34 -4.238,1.469 -8.938,2.204 -14.1,2.204 l -26.457,0 0,-63.63 26.457,0 c 5.162,0 9.862,0.734 14.1,2.204 4.237,1.468 7.878,3.582 10.92,6.341 3.041,2.756 5.401,6.099 7.077,10.027 1.674,3.927 2.512,8.349 2.512,13.266 0,4.886 -0.838,9.292 -2.512,13.22 -1.676,3.927 -4.036,7.269 -7.077,10.028" /></g><path
           id="path52"
           style="fill:#1c1c1b;fill-opacity:1;fill-rule:nonzero;stroke:none"
           d="m 468.493,305.712 5.282,0 0,63.63 -5.282,0 0,-63.63 z" /><g
           transform="translate(545.4639,324.8452)"
           id="g54"><path
             id="path56"
             style="fill:#1c1c1b;fill-opacity:1;fill-rule:nonzero;stroke:none"
             d="m 0,0 c -1.403,-3.523 -3.377,-6.513 -5.922,-8.971 -2.547,-2.458 -5.615,-4.333 -9.204,-5.62 -3.589,-1.29 -7.571,-1.935 -11.945,-1.935 -4.307,0 -8.248,0.645 -11.82,1.935 -3.571,1.287 -6.647,3.162 -9.227,5.62 -2.582,2.458 -4.583,5.448 -6.001,8.971 -1.417,3.522 -2.127,7.517 -2.127,11.984 0,4.437 0.71,8.424 2.127,11.961 1.418,3.537 3.419,6.535 6.001,8.994 2.58,2.457 5.656,4.339 9.227,5.644 3.572,1.304 7.513,1.956 11.82,1.956 4.374,0 8.356,-0.652 11.945,-1.956 3.589,-1.305 6.657,-3.187 9.204,-5.644 C -3.377,30.48 -1.403,27.482 0,23.945 1.4,20.408 2.103,16.421 2.103,11.984 2.103,7.517 1.4,3.522 0,0 m 5.024,25.317 c -1.674,4.003 -4.033,7.427 -7.075,10.275 -3.042,2.848 -6.682,5.043 -10.922,6.588 -4.238,1.544 -8.939,2.317 -14.098,2.317 -5.095,0 -9.76,-0.781 -13.999,-2.34 -4.239,-1.559 -7.877,-3.754 -10.919,-6.588 -3.044,-2.832 -5.409,-6.249 -7.102,-10.252 -1.691,-4.002 -2.538,-8.446 -2.538,-13.333 0,-4.917 0.847,-9.376 2.538,-13.378 1.693,-4.002 4.058,-7.419 7.102,-10.252 3.042,-2.834 6.68,-5.022 10.919,-6.566 4.239,-1.544 8.904,-2.315 13.999,-2.315 5.159,0 9.86,0.771 14.098,2.315 4.24,1.544 7.88,3.732 10.922,6.566 3.042,2.833 5.401,6.25 7.075,10.252 1.674,4.002 2.512,8.461 2.512,13.378 0,4.887 -0.838,9.331 -2.512,13.333" /></g><g
           transform="translate(90.5835,336.0195)"
           id="g58"><path
             id="path60"
             style="fill:#1c1c1b;fill-opacity:1;fill-rule:nonzero;stroke:none"
             d="m 0,0 c -1.556,1.349 -3.333,2.458 -5.333,3.329 -2,0.868 -4.042,1.626 -6.127,2.27 -2.085,0.644 -4.127,1.229 -6.127,1.754 -2,0.524 -3.777,1.102 -5.333,1.73 -1.556,0.631 -2.812,1.379 -3.769,2.249 -0.956,0.87 -1.435,1.964 -1.435,3.284 0,2.068 0.794,3.709 2.385,4.924 1.589,1.214 4.007,1.82 7.254,1.82 1.88,0 3.554,-0.218 5.025,-0.652 1.47,-0.435 2.777,-0.921 3.923,-1.461 1.144,-0.539 2.169,-1.027 3.075,-1.462 0.906,-0.434 1.753,-0.652 2.538,-0.652 0.889,0 1.615,0.18 2.179,0.54 0.565,0.36 1.103,0.899 1.616,1.619 l 4.306,7.06 c -1.333,1.079 -2.844,2.045 -4.536,2.9 -1.694,0.854 -3.513,1.589 -5.462,2.204 -1.948,0.613 -4.007,1.079 -6.178,1.394 -2.17,0.315 -4.4,0.472 -6.691,0.472 -4.102,0 -7.743,-0.548 -10.92,-1.641 -3.179,-1.095 -5.862,-2.557 -8.051,-4.385 -2.188,-1.829 -3.844,-3.912 -4.974,-6.25 -1.126,-2.338 -1.691,-4.738 -1.691,-7.195 0,-3.058 0.479,-5.629 1.435,-7.713 0.957,-2.083 2.213,-3.822 3.768,-5.216 1.557,-1.393 3.325,-2.518 5.308,-3.372 1.982,-0.854 4.017,-1.574 6.102,-2.158 2.084,-0.586 4.119,-1.118 6.101,-1.597 1.981,-0.48 3.751,-1.035 5.307,-1.664 1.554,-0.629 2.809,-1.424 3.768,-2.383 0.956,-0.959 1.435,-2.204 1.435,-3.732 0,-2.639 -0.87,-4.565 -2.614,-5.779 -1.744,-1.214 -4.189,-1.821 -7.333,-1.821 -2.324,0 -4.34,0.285 -6.049,0.855 -1.711,0.568 -3.223,1.198 -4.538,1.888 -1.316,0.689 -2.495,1.319 -3.539,1.888 -1.041,0.57 -2.075,0.855 -3.1,0.855 -0.788,0 -1.521,-0.165 -2.206,-0.494 -0.683,-0.331 -1.212,-0.765 -1.589,-1.304 l -5.127,-7.106 c 1.468,-1.289 3.195,-2.458 5.177,-3.507 1.983,-1.05 4.103,-1.956 6.36,-2.721 2.255,-0.764 4.588,-1.357 6.998,-1.776 2.409,-0.42 4.777,-0.63 7.1,-0.63 4.239,0 8.025,0.562 11.358,1.687 3.333,1.124 6.136,2.668 8.409,4.632 2.272,1.963 4.007,4.264 5.204,6.901 1.195,2.639 1.795,5.471 1.795,8.5 0,2.728 -0.48,5.059 -1.436,6.993 C 2.81,-2.99 1.554,-1.349 0,0" /></g><g
           transform="translate(140.4961,340.0229)"
           id="g62"><path
             id="path64"
             style="fill:#1c1c1b;fill-opacity:1;fill-rule:nonzero;stroke:none"
             d="m 0,0 c -1.985,-1.889 -5.23,-2.833 -9.742,-2.833 l -9.025,0 0,20.775 9.025,0 c 2.185,0 4.076,-0.241 5.665,-0.72 1.589,-0.479 2.904,-1.162 3.948,-2.046 1.041,-0.884 1.82,-1.941 2.332,-3.17 C 2.715,10.776 2.974,9.413 2.974,7.914 2.974,4.525 1.98,1.889 0,0 m 13.149,23.159 c -2.444,1.918 -5.554,3.424 -9.331,4.519 -3.776,1.094 -8.298,1.641 -13.56,1.641 l -26.354,0 0,-65.518 17.329,0 0,21.899 9.025,0 c 5.159,0 9.63,0.547 13.407,1.641 3.777,1.094 6.896,2.615 9.357,4.565 2.462,1.948 4.289,4.287 5.486,7.014 1.197,2.728 1.795,5.726 1.795,8.994 0,3.028 -0.583,5.846 -1.745,8.455 -1.162,2.607 -2.965,4.871 -5.409,6.79" /></g><g
           transform="translate(177.4253,345.9248)"
           id="g66"><path
             id="path68"
             style="fill:#1c1c1b;fill-opacity:1;fill-rule:nonzero;stroke:none"
             d="m 0,0 0,-40.213 43.479,0 0,3.822 -38.196,0 0,26.532 31.786,0 0,3.732 -31.786,0 0,25.722 38.196,0 0,3.822 L 0,23.417 0,0 Z" /></g></g></g></g></svg>